<svg width="18" height="18" viewBox="0 0 18 18" fill="none" xmlns="http://www.w3.org/2000/svg">
<path d="M11.5931 15.3589C11.8067 15.3589 12.0204 15.1632 12.0204 14.9676V6.94586C12.0204 6.75021 11.8067 6.55457 11.5931 6.55457C11.3795 6.55457 11.1659 6.75021 11.1659 6.94586V14.9676C11.1659 15.1632 11.2727 15.3589 11.5931 15.3589Z" fill="#707683"/>
<path d="M6.14341 15.3589C6.35703 15.3589 6.57055 15.1632 6.57055 14.9676V6.94586C6.57055 6.75021 6.35703 6.55457 6.14341 6.55457C5.92978 6.55457 5.71614 6.75021 5.71614 6.94586V14.9676C5.60933 15.1632 5.82297 15.3589 6.14341 15.3589Z" fill="#707683"/>
<path d="M16.8289 3.52174C16.722 2.73914 15.9739 2.15218 15.119 2.15218H12.7681V1.66305C12.7681 1.17392 12.5544 0.782608 12.2338 0.48913C11.9133 0.195652 11.379 0 10.9516 0H6.89085C6.35655 0 5.92916 0.195652 5.60858 0.48913C5.288 0.782608 5.07428 1.27175 5.07428 1.66305V2.15218H2.72328C1.8684 2.15218 1.12041 2.73914 1.01355 3.52174C0.90669 4.30435 1.44094 5.08696 2.29582 5.28262V15.75C2.29582 16.337 2.50964 16.9239 2.93708 17.3152C3.36452 17.7065 4.00568 18 4.53998 18H13.3024C13.9436 18 14.4779 17.8044 14.9053 17.3152C15.3328 16.9239 15.5465 16.337 15.5465 15.75V5.28262C16.4014 5.08696 16.9357 4.40218 16.8289 3.52174ZM5.92908 1.66305C5.92908 1.4674 6.03602 1.27174 6.14288 1.07609C6.3566 0.88044 6.57029 0.880443 6.78401 0.880443H10.8446C11.0583 0.880443 11.2722 0.978266 11.4859 1.07609C11.6996 1.27174 11.6995 1.4674 11.6995 1.66305V2.15218H5.82225V1.66305H5.92908ZM14.5847 15.75C14.5847 16.5326 13.9436 17.1196 13.1956 17.1196H4.43302C3.685 17.1196 3.04392 16.5326 3.04392 15.75V5.38043H14.5847V15.75ZM15.119 4.5H2.61645C2.18901 4.5 1.76152 4.20652 1.76152 3.71739C1.76152 3.22826 2.08215 2.93478 2.61645 2.93478H15.119C15.5464 2.93478 15.9739 3.22826 15.9739 3.71739C15.9739 4.20652 15.5464 4.5 15.119 4.5Z" fill="#707683"/>
<path d="M8.81434 15.3589C9.02795 15.3589 9.24146 15.1632 9.24146 14.9676V6.94586C9.24146 6.75021 9.02795 6.55457 8.81434 6.55457C8.60072 6.55457 8.38708 6.75021 8.38708 6.94586V14.9676C8.38708 15.1632 8.60072 15.3589 8.81434 15.3589Z" fill="#707683"/>
</svg>
